solid OpenSCAD_Model
  facet normal 1 -0 0
    outer loop
      vertex 47.8 -3 23
      vertex 47.8 47.4 20
      vertex 47.8 47.4 23
    endloop
  endfacet
  facet normal 1 0 0
    outer loop
      vertex 47.8 47.4 20
      vertex 47.8 -3 23
      vertex 47.8 -3 20
    endloop
  endfacet
  facet normal 0 0 1
    outer loop
      vertex 47.8 47.4 23
      vertex 44.8 44.4 23
      vertex 47.8 -3 23
    endloop
  endfacet
  facet normal 0 0 1
    outer loop
      vertex 47.8 47.4 23
      vertex 0 44.4 23
      vertex 44.8 44.4 23
    endloop
  endfacet
  facet normal 0 0 1
    outer loop
      vertex 0 44.4 23
      vertex -3 47.4 23
      vertex 0 0 23
    endloop
  endfacet
  facet normal -0 0 1
    outer loop
      vertex -3 47.4 23
      vertex 0 44.4 23
      vertex 47.8 47.4 23
    endloop
  endfacet
  facet normal -0 0 1
    outer loop
      vertex 44.8 0 23
      vertex 47.8 -3 23
      vertex 44.8 44.4 23
    endloop
  endfacet
  facet normal -0 0 1
    outer loop
      vertex 0 0 23
      vertex 47.8 -3 23
      vertex 44.8 0 23
    endloop
  endfacet
  facet normal 0 0 1
    outer loop
      vertex 0 0 23
      vertex -3 -3 23
      vertex 47.8 -3 23
    endloop
  endfacet
  facet normal 0 0 1
    outer loop
      vertex -3 -3 23
      vertex 0 0 23
      vertex -3 47.4 23
    endloop
  endfacet
  facet normal 0 0 -1
    outer loop
      vertex 47.8 -3 20
      vertex 44.8 0 20
      vertex 47.8 47.4 20
    endloop
  endfacet
  facet normal 0 0 -1
    outer loop
      vertex 47.8 -3 20
      vertex 0 0 20
      vertex 44.8 0 20
    endloop
  endfacet
  facet normal -0 0 -1
    outer loop
      vertex 0 0 20
      vertex -3 -3 20
      vertex 0 44.4 20
    endloop
  endfacet
  facet normal 0 0 -1
    outer loop
      vertex -3 -3 20
      vertex 0 0 20
      vertex 47.8 -3 20
    endloop
  endfacet
  facet normal 0 0 -1
    outer loop
      vertex 44.8 44.4 20
      vertex 47.8 47.4 20
      vertex 44.8 0 20
    endloop
  endfacet
  facet normal 0 0 -1
    outer loop
      vertex 0 44.4 20
      vertex 47.8 47.4 20
      vertex 44.8 44.4 20
    endloop
  endfacet
  facet normal 0 0 -1
    outer loop
      vertex 0 44.4 20
      vertex -3 47.4 20
      vertex 47.8 47.4 20
    endloop
  endfacet
  facet normal 0 0 -1
    outer loop
      vertex -3 47.4 20
      vertex 0 44.4 20
      vertex -3 -3 20
    endloop
  endfacet
  facet normal -1 0 0
    outer loop
      vertex -3 -3 20
      vertex -3 47.4 23
      vertex -3 47.4 20
    endloop
  endfacet
  facet normal -1 -0 0
    outer loop
      vertex -3 47.4 23
      vertex -3 -3 20
      vertex -3 -3 23
    endloop
  endfacet
  facet normal 0 1 -0
    outer loop
      vertex 43.2 1.6 0
      vertex 1.6 1.6 43
      vertex 43.2 1.6 43
    endloop
  endfacet
  facet normal 0 1 0
    outer loop
      vertex 1.6 1.6 43
      vertex 43.2 1.6 0
      vertex 1.6 1.6 0
    endloop
  endfacet
  facet normal 0 -1 0
    outer loop
      vertex -3 -3 20
      vertex 47.8 -3 23
      vertex -3 -3 23
    endloop
  endfacet
  facet normal 0 -1 -0
    outer loop
      vertex 47.8 -3 23
      vertex -3 -3 20
      vertex 47.8 -3 20
    endloop
  endfacet
  facet normal 1 -0 0
    outer loop
      vertex 1.6 1.6 43
      vertex 1.6 42.8 0
      vertex 1.6 42.8 43
    endloop
  endfacet
  facet normal 1 0 0
    outer loop
      vertex 1.6 42.8 0
      vertex 1.6 1.6 43
      vertex 1.6 1.6 0
    endloop
  endfacet
  facet normal 0 -1 0
    outer loop
      vertex 1.6 42.8 0
      vertex 43.2 42.8 43
      vertex 1.6 42.8 43
    endloop
  endfacet
  facet normal 0 -1 -0
    outer loop
      vertex 43.2 42.8 43
      vertex 1.6 42.8 0
      vertex 43.2 42.8 0
    endloop
  endfacet
  facet normal 0 1 -0
    outer loop
      vertex 47.8 47.4 20
      vertex -3 47.4 23
      vertex 47.8 47.4 23
    endloop
  endfacet
  facet normal 0 1 0
    outer loop
      vertex -3 47.4 23
      vertex 47.8 47.4 20
      vertex -3 47.4 20
    endloop
  endfacet
  facet normal -1 0 0
    outer loop
      vertex 43.2 1.6 0
      vertex 43.2 42.8 43
      vertex 43.2 42.8 0
    endloop
  endfacet
  facet normal -1 -0 0
    outer loop
      vertex 43.2 42.8 43
      vertex 43.2 1.6 0
      vertex 43.2 1.6 43
    endloop
  endfacet
  facet normal 1 -0 0
    outer loop
      vertex 44.8 0 43
      vertex 44.8 44.4 23
      vertex 44.8 44.4 43
    endloop
  endfacet
  facet normal 1 0 0
    outer loop
      vertex 44.8 44.4 23
      vertex 44.8 0 43
      vertex 44.8 0 23
    endloop
  endfacet
  facet normal 0 0 1
    outer loop
      vertex 44.8 44.4 43
      vertex 43.2 42.8 43
      vertex 44.8 0 43
    endloop
  endfacet
  facet normal 0 0 1
    outer loop
      vertex 44.8 44.4 43
      vertex 1.6 42.8 43
      vertex 43.2 42.8 43
    endloop
  endfacet
  facet normal 0 0 1
    outer loop
      vertex 1.6 42.8 43
      vertex 0 44.4 43
      vertex 1.6 1.6 43
    endloop
  endfacet
  facet normal -0 0 1
    outer loop
      vertex 0 44.4 43
      vertex 1.6 42.8 43
      vertex 44.8 44.4 43
    endloop
  endfacet
  facet normal -0 0 1
    outer loop
      vertex 43.2 1.6 43
      vertex 44.8 0 43
      vertex 43.2 42.8 43
    endloop
  endfacet
  facet normal -0 0 1
    outer loop
      vertex 1.6 1.6 43
      vertex 44.8 0 43
      vertex 43.2 1.6 43
    endloop
  endfacet
  facet normal 0 0 1
    outer loop
      vertex 1.6 1.6 43
      vertex 0 0 43
      vertex 44.8 0 43
    endloop
  endfacet
  facet normal 0 0 1
    outer loop
      vertex 0 0 43
      vertex 1.6 1.6 43
      vertex 0 44.4 43
    endloop
  endfacet
  facet normal -1 0 0
    outer loop
      vertex 0 0 23
      vertex 0 44.4 43
      vertex 0 44.4 23
    endloop
  endfacet
  facet normal -1 -0 0
    outer loop
      vertex 0 44.4 43
      vertex 0 0 23
      vertex 0 0 43
    endloop
  endfacet
  facet normal 0 -1 0
    outer loop
      vertex 0 0 23
      vertex 44.8 0 43
      vertex 0 0 43
    endloop
  endfacet
  facet normal 0 -1 -0
    outer loop
      vertex 44.8 0 43
      vertex 0 0 23
      vertex 44.8 0 23
    endloop
  endfacet
  facet normal 0 1 -0
    outer loop
      vertex 44.8 44.4 23
      vertex 0 44.4 43
      vertex 44.8 44.4 43
    endloop
  endfacet
  facet normal 0 1 0
    outer loop
      vertex 0 44.4 43
      vertex 44.8 44.4 23
      vertex 0 44.4 23
    endloop
  endfacet
  facet normal 1 -0 0
    outer loop
      vertex 44.8 0 20
      vertex 44.8 44.4 0
      vertex 44.8 44.4 20
    endloop
  endfacet
  facet normal 1 0 0
    outer loop
      vertex 44.8 44.4 0
      vertex 44.8 0 20
      vertex 44.8 0 0
    endloop
  endfacet
  facet normal 0 0 -1
    outer loop
      vertex 44.8 0 0
      vertex 43.2 1.6 0
      vertex 44.8 44.4 0
    endloop
  endfacet
  facet normal 0 0 -1
    outer loop
      vertex 44.8 0 0
      vertex 1.6 1.6 0
      vertex 43.2 1.6 0
    endloop
  endfacet
  facet normal -0 0 -1
    outer loop
      vertex 1.6 1.6 0
      vertex 0 0 0
      vertex 1.6 42.8 0
    endloop
  endfacet
  facet normal 0 0 -1
    outer loop
      vertex 0 0 0
      vertex 1.6 1.6 0
      vertex 44.8 0 0
    endloop
  endfacet
  facet normal 0 0 -1
    outer loop
      vertex 43.2 42.8 0
      vertex 44.8 44.4 0
      vertex 43.2 1.6 0
    endloop
  endfacet
  facet normal 0 0 -1
    outer loop
      vertex 1.6 42.8 0
      vertex 44.8 44.4 0
      vertex 43.2 42.8 0
    endloop
  endfacet
  facet normal 0 0 -1
    outer loop
      vertex 1.6 42.8 0
      vertex 0 44.4 0
      vertex 44.8 44.4 0
    endloop
  endfacet
  facet normal 0 0 -1
    outer loop
      vertex 0 44.4 0
      vertex 1.6 42.8 0
      vertex 0 0 0
    endloop
  endfacet
  facet normal -1 0 0
    outer loop
      vertex 0 0 0
      vertex 0 44.4 20
      vertex 0 44.4 0
    endloop
  endfacet
  facet normal -1 -0 0
    outer loop
      vertex 0 44.4 20
      vertex 0 0 0
      vertex 0 0 20
    endloop
  endfacet
  facet normal 0 -1 0
    outer loop
      vertex 0 0 0
      vertex 44.8 0 20
      vertex 0 0 20
    endloop
  endfacet
  facet normal 0 -1 -0
    outer loop
      vertex 44.8 0 20
      vertex 0 0 0
      vertex 44.8 0 0
    endloop
  endfacet
  facet normal 0 1 -0
    outer loop
      vertex 44.8 44.4 0
      vertex 0 44.4 20
      vertex 44.8 44.4 20
    endloop
  endfacet
  facet normal 0 1 0
    outer loop
      vertex 0 44.4 20
      vertex 44.8 44.4 0
      vertex 0 44.4 0
    endloop
  endfacet
endsolid OpenSCAD_Model
